# xmcd
#
# Track frame offsets: 
#        150
#        12107
#        28100
#        40422
#        50102
#        64810
#        82760
#        102767
#        116925
#        132835
#        144200
#        157230
#        168547
#        180117
#        195370
#        206715
#        222337
#        236832
#        251907
#        268725
#
# Disc length: 3899 seconds
#
# Revision: 3
# Processed by: cddbd v1.5.2PL0 Copyright (c) Steve Scherf et al.
# Submitted via: ExactAudioCopyFreeDBPlugin 1.0
#
DISCID=230f3914
DTITLE=Various Artist - Soul Christmas [Atlantic Remaster]
DYEAR=1991
DGENRE=Holiday
TTITLE0=The Drifters - White Christmas (ft Clyde McPhatter)
TTITLE1=Donny Hathaway - This Christmas
TTITLE2=Carla Thomas - Gee Whiz, It's Christmas
TTITLE3=Clarence Carter - Back Door Santa
TTITLE4=Booker T. and the M.G.'s - Merry Christmas Baby
TTITLE5=The Impressions - Silent Night
TTITLE6=Luther Vandross - May Christmas Bring You Happiness
TTITLE7=Otis Redding - White Christmas=
TTITLE8=Joe Tex - I'll Make Everyday Christmas (For My Woman)
TTITLE9=Booker T. and the M.G.'s - Silver Bells
TTITLE10=Carla Thomas - All I Want for Christmas is You
TTITLE11=The Drifters - The Christmas Song
TTITLE12=Otis Redding - Merry Christmas Baby
TTITLE13=Brook Benton - Soul Santa
TTITLE14=The Sweet Inspirations - Every Day Will Be Like a Holiday
TTITLE15=Margie Joseph - Christmas Gift
TTITLE16=Soloman Burke - Presents for Christmas
TTITLE17=Otis and Carla - New Year's Resolution
TTITLE18=King Curtis - What Are You Doing New Years Eve?
TTITLE19=Luther Vandross - May Christmas Bring You Happines (1991 Remi
TTITLE19=x)
EXTD=
EXTT0=
EXTT1=
EXTT2=
EXTT3=
EXTT4=
EXTT5=
EXTT6=
EXTT7=
EXTT8=
EXTT9=
EXTT10=
EXTT11=
EXTT12=
EXTT13=
EXTT14=
EXTT15=
EXTT16=
EXTT17=
EXTT18=
EXTT19=
PLAYORDER=
